<?xml version="1.0" encoding="UTF-8" standalone="no"?>
<svg width="55px" height="53px" viewBox="0 0 55 53" version="1.1" xmlns="http://www.w3.org/2000/svg" xmlns:xlink="http://www.w3.org/1999/xlink" xmlns:sketch="http://www.bohemiancoding.com/sketch/ns">
    <!-- Generator: Sketch 3.2 (9961) - http://www.bohemiancoding.com/sketch -->
    <title>32</title>
    <desc>Created with Sketch.</desc>
    <defs></defs>
    <g id="Page-1" stroke="none" stroke-width="1" fill="none" fill-rule="evenodd" sketch:type="MSPage">
        <g id="32" sketch:type="MSArtboardGroup" fill="#555555">
            <g id="Logo" sketch:type="MSLayerGroup" transform="translate(-0.500000, -0.500000)">
                <g id="Logo-NAM" sketch:type="MSShapeGroup">
                    <path d="M0.580223384,23.2210031 C1.64663472,19.840133 2.70782921,16.4576959 3.75793789,13.0716768 C3.84314646,12.7972133 3.95248297,12.7083373 4.23680136,12.7092328 C7.94859101,12.720874 11.6603807,12.7168444 15.3723877,12.7170682 C15.6717045,12.7170682 15.6749651,12.7181876 15.5838875,13.0074264 C15.2221858,14.1565461 14.9009148,15.3182025 14.7746235,16.5221701 C14.612249,18.0713438 14.9702554,19.5215674 15.6447508,20.8992574 C16.3083777,22.2552321 17.3387059,23.2505539 18.5337995,24.1108825 C21.0685371,25.9354151 23.5287172,27.8665094 26.0178074,29.7564117 C26.1571408,29.8620779 26.1590971,29.9104336 26.0169379,30.015876 C24.084964,31.4477423 22.1710317,32.9055774 20.2231899,34.3139375 C18.9481045,35.2358301 17.4923856,35.4943989 15.9551534,35.3571671 C14.7189771,35.2470236 13.6625647,34.7157824 12.6761451,33.9729849 C8.51070673,30.8368037 4.33766048,27.711592 0.16744003,24.5823507 L0.16744003,24.421165 C0.375461973,24.046856 0.453280004,23.6239674 0.580223384,23.2210031 Z" id="Fill-1"></path>
                    <path d="M33.4682596,-0.277975998 C33.9790763,1.35335763 34.4879367,2.98536286 35.0013618,4.61602488 C35.6619456,6.71412543 36.326442,8.81088277 36.9887647,10.9085356 C37.0174574,10.9998741 37.0422374,11.0927798 37.0917975,11.2651589 C36.4262143,11.2651589 35.8030179,11.2638157 35.1800389,11.2653828 C32.9950477,11.2709795 31.1406745,12.1089213 29.5727933,13.6486925 C28.7280982,14.4783511 28.1335945,15.4761354 27.7647196,16.6174197 C26.8887234,19.3273543 26.0101187,22.0366173 25.133905,24.7463281 C24.9367515,25.3561473 24.7400328,25.9664143 24.5528782,26.5795916 C24.504405,26.7380909 24.4676697,26.7819692 24.3159462,26.6704824 C22.3876676,25.2500334 20.4446079,23.8501804 18.5285019,22.4127173 C17.673373,21.7711087 17.1056057,20.8751848 16.7226019,19.8662071 C16.3354681,18.8473791 16.0070238,17.8119849 16.0950582,16.6897294 C16.1563562,15.9068594 16.3872018,15.1678678 16.6223949,14.4288761 C18.1665828,9.57584325 19.7101187,4.72236267 21.2540893,-0.130894045 C21.2701746,-0.181040708 21.2932157,-0.228948681 21.3129962,-0.277975998 L33.4682596,-0.277975998" id="Fill-2"></path>
                    <path d="M54.5842677,24.5827952 C51.4808933,26.9269278 48.3764321,29.2694933 45.2771877,31.6196704 C45.0809037,31.7685433 45.0396036,31.7027258 44.9846093,31.5070643 C44.7865863,30.8034439 44.5418291,30.116166 44.2979413,29.4279926 C43.714306,27.7825552 42.6565894,26.5503801 41.2576038,25.5877432 C39.9253504,24.6707757 38.4735442,24.2013223 36.8704493,24.2049042 C33.984009,24.2113964 31.0977861,24.2066952 28.2113457,24.2066952 C27.8026924,24.2066952 27.394039,24.2010985 26.9853857,24.2093816 C26.8197507,24.2129635 26.7582353,24.1988598 26.8230112,23.9953628 C27.5522835,21.7033917 28.2565585,19.4029135 28.9988729,17.1154198 C29.4914306,15.5973639 30.5182808,14.5192106 31.7992352,13.6613445 C32.7617442,13.0168256 33.8098966,12.7166172 34.9510828,12.7163933 C39.2286834,12.7159456 43.5060667,12.7110205 47.7836674,12.7092295 C48.7050937,12.7090056 49.6267374,12.7199752 50.5481638,12.7128114 C50.7253193,12.7112443 50.8024853,12.761391 50.8594359,12.9398146 C52.0580075,16.6889493 53.2635348,20.4358452 54.4686275,24.1829651 C54.5005807,24.2828107 54.5086233,24.3936258 54.5842677,24.475338 L54.5842677,24.5827952" id="Fill-3"></path>
                    <path d="M10.2607675,33.9668218 C10.9348281,34.4812729 11.5832392,34.992142 12.29447,35.4071952 C13.2485016,35.9641813 14.2149233,36.479304 15.3324163,36.6080287 C17.5908782,36.8683884 19.6250154,36.345878 21.4543913,34.9153549 C24.0143436,32.9135181 26.662113,31.0345853 29.2679302,29.0972227 C29.2957534,29.0766267 29.3266198,29.0600604 29.3803099,29.0264801 C29.5133396,29.4507119 29.6420219,29.8646457 29.7728779,30.2776841 C30.3702074,32.1628852 30.9649284,34.0487579 31.5666053,35.9323919 C32.3247876,38.3069707 31.6618128,41.4747175 29.4168278,43.2186573 C28.2660774,44.1127902 27.0816348,44.9610299 25.9128427,45.8307611 C22.8572895,48.1045989 19.8008668,50.3773173 16.7490088,52.6565279 C16.5794611,52.7830139 16.4694725,52.8031621 16.2855785,52.6670497 C13.1328614,50.3332151 9.97384064,48.0078874 6.81373301,45.6845746 C6.68744173,45.591669 6.62766531,45.521598 6.68374646,45.3431744 C7.86731959,41.5886669 9.0432848,37.8316968 10.220989,34.0749506 C10.2288142,34.0496534 10.2392479,34.0252517 10.2607675,33.9668218" id="Fill-4"></path>
                    <path d="M28.4215026,45.9742913 C28.9636204,45.5460299 29.4857403,45.1162013 30.0248149,44.7109984 C31.6592109,43.4821813 32.6430221,41.8286846 33.0542839,39.8044609 C33.3562092,38.3190898 33.25122,36.8603592 32.7830076,35.4172995 C31.7961533,32.3746955 30.8310358,29.3247038 29.855702,26.278294 C29.6778943,25.7226511 29.6755032,25.7289194 30.2571822,25.7224272 C32.3343584,25.6991449 34.4124042,25.7302626 36.4889283,25.6973539 C38.599362,25.6637735 40.2870134,26.5455937 41.7144743,28.0598438 C42.3259327,28.7086162 42.6765486,29.5196937 42.9421733,30.3697244 C44.5067939,35.3774508 46.0677193,40.3867442 47.6375568,45.3926796 C47.7114622,45.6284137 47.67364,45.7488552 47.4771386,45.896161 C44.3581137,48.2338015 41.2453924,50.5801728 38.1350622,52.9296782 C37.9857299,53.0425082 37.8916092,53.0537017 37.7333647,52.9354988 C34.6897667,50.6589747 31.6405172,48.3902859 28.5927892,46.1193585 C28.5380123,46.0783904 28.4880175,46.0307063 28.4215026,45.9742913" id="Fill-5"></path>
                </g>
            </g>
        </g>
    </g>
</svg>