<?xml version="1.0" encoding="UTF-8" standalone="no"?>
<svg width="130px" height="37px" viewBox="0 0 130 37" version="1.1" xmlns="http://www.w3.org/2000/svg" xmlns:xlink="http://www.w3.org/1999/xlink" xmlns:sketch="http://www.bohemiancoding.com/sketch/ns">
    <!-- Generator: Sketch 3.1.1 (8761) - http://www.bohemiancoding.com/sketch -->
    <title>128</title>
    <desc>Created with Sketch.</desc>
    <defs></defs>
    <g id="Page-1" stroke="none" stroke-width="1" fill="none" fill-rule="evenodd" sketch:type="MSPage">
        <g id="128" sketch:type="MSArtboardGroup" fill="#FFFFFF">
            <g id="Logo-NAM-+-NAM-7-+-NAM--2" sketch:type="MSLayerGroup">
                <g id="Logo-NAM-+-NAM-7" transform="translate(0.500000, 0.500000)" sketch:type="MSShapeGroup">
                    <g id="Logo-NAM">
                        <path d="M0.394113996,15.7727569 C1.11846887,13.4763168 1.83928022,11.1788123 2.55256159,8.87887479 C2.61043911,8.6924468 2.68470541,8.63207819 2.87782734,8.63268644 C5.39904295,8.64059366 7.92025856,8.63785655 10.4416218,8.63800861 C10.6449314,8.63800861 10.6471461,8.63876892 10.5852821,8.835233 C10.3395979,9.61576716 10.1213761,10.4048168 10.0355933,11.2226061 C9.9253012,12.2748751 10.1684754,13.2599326 10.6266232,14.195722 C11.0773887,15.1167615 11.7772342,15.792829 12.5889959,16.3772032 C14.3107045,17.6165084 15.9817702,18.9281951 17.6724729,20.2119023 C17.7671145,20.2836756 17.7684433,20.316521 17.6718823,20.3881422 C16.3595982,21.3607306 15.0595687,22.3509582 13.7365063,23.3075802 C12.8704106,23.9337714 11.8816204,24.109403 10.8374627,24.016189 C9.99779574,23.9413745 9.28023262,23.5805314 8.61021175,23.0759898 C5.7808574,20.9457534 2.94633542,18.8229682 0.11373285,16.6974458 L0.11373285,16.5879611 C0.255030774,16.3337135 0.307888304,16.0464684 0.394113996,15.7727569 Z" id="Fill-1"></path>
                        <path d="M22.7331575,-0.188813886 C23.0801273,0.919261784 23.4257683,2.02779364 23.7745099,3.13541312 C24.2232083,4.56053803 24.6745644,5.98475056 25.124444,7.40957134 C25.1439333,7.47161263 25.1607651,7.53471835 25.1944285,7.65180608 C24.7423342,7.65180608 24.319031,7.65089371 23.8958755,7.65195814 C22.4117305,7.65575969 21.1521563,8.22492769 20.0871804,9.27081001 C19.5134252,9.83435172 19.1096114,10.512092 18.8590548,11.287304 C18.2640385,13.1280143 17.6672504,14.9682684 17.0720864,16.8088266 C16.9381709,17.2230435 16.8045506,17.6375644 16.6774267,18.0540622 C16.6445015,18.1617221 16.6195492,18.1915262 16.5164918,18.1157994 C15.2067176,17.1509661 13.8869035,16.2001225 12.5853975,15.2237325 C12.0045553,14.7879229 11.618902,14.1793708 11.3587485,13.4940275 C11.0957896,12.8019934 10.8726954,12.0987067 10.9324923,11.33642 C10.9741287,10.8046592 11.1309295,10.3027026 11.2906833,9.80074602 C12.3395657,6.50434636 13.3880052,3.20764257 14.4367399,-0.0889091629 C14.4476658,-0.122971047 14.4633163,-0.155512311 14.4767522,-0.188813886 L22.7331575,-0.188813886" id="Fill-2"></path>
                        <path d="M37.0761063,16.6977477 C34.9681539,18.2899887 32.8594633,19.8811653 30.7543162,21.477512 C30.6209912,21.5786332 30.5929383,21.533927 30.5555837,21.4010248 C30.4210775,20.923094 30.2548273,20.4562637 30.0891676,19.9888251 C29.6927362,18.8711696 28.9742872,18.0342204 28.0240328,17.3803539 C27.119106,16.757508 26.1329734,16.438634 25.0440788,16.441067 C23.0834778,16.4454768 21.1230245,16.4422835 19.1624235,16.4422835 C18.8848477,16.4422835 18.6072718,16.438482 18.3296959,16.4441083 C18.2171891,16.4465413 18.1754051,16.4369614 18.2194038,16.298737 C18.7147586,14.7419264 19.193134,13.1793375 19.6973476,11.6255681 C20.0319151,10.5944358 20.7293983,9.86210533 21.5994805,9.27940381 C22.2532602,8.84161737 22.9652128,8.63770225 23.7403581,8.63755018 C26.6458982,8.63724606 29.5512906,8.6339007 32.4568307,8.6326842 C33.0827052,8.63253214 33.7087273,8.63998318 34.3346018,8.63511719 C34.4549339,8.63405276 34.5073485,8.66811464 34.5460319,8.78930804 C35.360156,11.3358901 36.1790048,13.8809515 36.9975583,16.4261649 C37.0192624,16.4939846 37.0247253,16.5692553 37.0761063,16.6247579 L37.0761063,16.6977477" id="Fill-3"></path>
                        <path d="M6.9695779,23.0718035 C7.42743042,23.421242 7.86786062,23.7682474 8.35096073,24.0501703 C8.99898224,24.4285005 9.65541962,24.7783952 10.4144715,24.8658308 C11.948521,25.0426789 13.3301992,24.6877662 14.5727941,23.7160901 C16.3116296,22.3563519 18.1101145,21.0800957 19.8801035,19.7641513 C19.8990023,19.7501616 19.9199681,19.738909 19.9564369,19.7160997 C20.0467967,20.0042571 20.1342036,20.2854197 20.2230869,20.5659741 C20.6288201,21.8464881 21.0327816,23.1274582 21.4414677,24.4069077 C21.9564595,26.0198292 21.506137,28.1715062 19.9812415,29.3560691 C19.1995997,29.9634046 18.3950727,30.5395675 17.6011762,31.1303283 C15.5257061,32.6748219 13.4496454,34.2185551 11.3766852,35.7666982 C11.2615208,35.8526132 11.1868115,35.8662988 11.0619024,35.7738451 C8.92043418,34.1885989 6.77468421,32.6091311 4.62819601,31.0310318 C4.54241325,30.9679261 4.5018104,30.9203307 4.53990326,30.7991373 C5.34383972,28.2489058 6.14260855,25.6970016 6.94255855,23.1452495 C6.94787383,23.1280665 6.95496087,23.1114917 6.9695779,23.0718035" id="Fill-4"></path>
                        <path d="M19.3051716,31.2278205 C19.6734025,30.936926 20.02805,30.6449669 20.3942139,30.3697348 C21.5043697,29.5350665 22.1726188,28.4119367 22.4519664,27.0369923 C22.6570477,26.028061 22.5857344,25.0372251 22.2677033,24.0570336 C21.5973871,21.9903592 20.9418356,19.9186667 20.2793447,17.8494073 C20.1585697,17.4719894 20.1569456,17.4762472 20.5520483,17.4718374 C21.9629604,17.4560229 23.3744632,17.4771595 24.7849324,17.4548064 C26.2184346,17.4319971 27.3647638,18.0309693 28.3343599,19.0595165 C28.7496902,19.5001922 28.9878443,20.0511127 29.1682687,20.6284921 C30.2310298,24.0299666 31.291281,27.4325055 32.3575857,30.8327635 C32.4077856,30.9928848 32.3820951,31.0746941 32.2486224,31.1747509 C30.1300395,32.7625821 28.0157383,34.3563438 25.9030612,35.9522343 C25.8016278,36.0288735 25.7376968,36.0364766 25.63021,35.9561879 C23.5628604,34.4098696 21.4916721,32.8688734 19.4215172,31.3263567 C19.3843102,31.2985294 19.3503515,31.2661401 19.3051716,31.2278205" id="Fill-5"></path>
                    </g>
                </g>
                <path d="M56.009,6.878 C56.0930004,6.878 56.1629997,6.88149996 56.219,6.8885 C56.2750003,6.89550003 56.3251664,6.90949989 56.3695,6.9305 C56.4138336,6.9515001 56.4569998,6.98183313 56.499,7.0215 C56.5410002,7.06116686 56.5876664,7.11366634 56.639,7.179 L61.952,13.948 C61.9333332,13.7846658 61.9205,13.6248341 61.9135,13.4685 C61.9065,13.3121659 61.903,13.166334 61.903,13.031 L61.903,6.878 L63.562,6.878 L63.562,17 L62.589,17 C62.4396659,17 62.3160005,16.9766669 62.218,16.93 C62.1199995,16.8833331 62.0243338,16.7993339 61.931,16.678 L56.639,9.937 C56.6530001,10.0863341 56.6635,10.2344993 56.6705,10.3815 C56.6775,10.5285007 56.681,10.6626661 56.681,10.784 L56.681,17 L55.022,17 L55.022,6.878 L56.009,6.878 Z M74.503,17 L73.047,17 C72.8836658,17 72.7495005,16.9591671 72.6445,16.8775 C72.5394995,16.7958329 72.4636669,16.6943339 72.417,16.573 L71.661,14.508 L67.468,14.508 L66.712,16.573 C66.6746665,16.6803339 66.6011672,16.7783329 66.4915,16.867 C66.3818328,16.9556671 66.2476675,17 66.089,17 L64.626,17 L68.602,6.878 L70.527,6.878 L74.503,17 Z M67.951,13.178 L71.178,13.178 L69.946,9.811 C69.8899997,9.66166592 69.828167,9.48550101 69.7605,9.2825 C69.692833,9.07949898 69.6263337,8.85900119 69.561,8.621 C69.4956663,8.85900119 69.4315003,9.08066564 69.3685,9.286 C69.3054997,9.49133436 69.243667,9.67099923 69.183,9.825 L67.951,13.178 Z M80.628,12.8 C80.7073337,12.9493341 80.780833,13.1044992 80.8485,13.2655 C80.916167,13.4265008 80.9826663,13.5886658 81.048,13.752 C81.1133337,13.5839992 81.1809996,13.4183341 81.251,13.255 C81.3210003,13.0916658 81.3956663,12.9353341 81.475,12.786 L84.471,7.179 C84.5083335,7.10899965 84.5468331,7.05300021 84.5865,7.011 C84.6261669,6.96899979 84.6704998,6.93866676 84.7195,6.92 C84.7685002,6.90133324 84.823333,6.88966669 84.884,6.885 C84.944667,6.88033331 85.0169996,6.878 85.101,6.878 L86.522,6.878 L86.522,17 L84.863,17 L84.863,10.462 C84.863,10.3406661 84.8665,10.2076674 84.8735,10.063 C84.8805,9.91833261 84.8909999,9.77133408 84.905,9.622 L81.846,15.362 C81.7759996,15.4926673 81.6850006,15.5941663 81.573,15.6665 C81.4609994,15.7388337 81.3303341,15.775 81.181,15.775 L80.922,15.775 C80.7726659,15.775 80.6420006,15.7388337 80.53,15.6665 C80.4179994,15.5941663 80.3270003,15.4926673 80.257,15.362 L77.156,9.601 C77.1746668,9.75500077 77.1875,9.90549926 77.1945,10.0525 C77.2015,10.1995007 77.205,10.3359994 77.205,10.462 L77.205,17 L75.546,17 L75.546,6.878 L76.967,6.878 C77.0510004,6.878 77.123333,6.88033331 77.184,6.885 C77.244667,6.88966669 77.2994998,6.90133324 77.3485,6.92 C77.3975002,6.93866676 77.4429998,6.96899979 77.485,7.011 C77.5270002,7.05300021 77.5666665,7.10899965 77.604,7.179 L80.628,12.8 Z M54.098,23.969 L55.225,23.969 C55.3463339,23.969 55.4466663,23.999333 55.526,24.06 C55.6053337,24.120667 55.6589999,24.1976662 55.687,24.291 L57.759,31.263 C57.7963335,31.3890006 57.8301665,31.5243326 57.8605,31.669 C57.8908335,31.8136674 57.9199999,31.9653325 57.948,32.124 C57.9806668,31.9653325 58.0133332,31.8125007 58.046,31.6655 C58.0786668,31.5184993 58.1159998,31.3843339 58.158,31.263 L60.517,24.291 C60.5450001,24.2116663 60.5998329,24.138167 60.6815,24.0705 C60.7631671,24.002833 60.8623327,23.969 60.979,23.969 L61.371,23.969 C61.4923339,23.969 61.5914996,23.999333 61.6685,24.06 C61.7455004,24.120667 61.8003332,24.1976662 61.833,24.291 L64.178,31.263 C64.2620004,31.5056679 64.3366663,31.7833318 64.402,32.096 C64.4300001,31.9419992 64.4556665,31.7950007 64.479,31.655 C64.5023334,31.5149993 64.5326665,31.3843339 64.57,31.263 L66.649,24.291 C66.6723334,24.2069996 66.7248329,24.1323337 66.8065,24.067 C66.8881671,24.0016663 66.9873327,23.969 67.104,23.969 L68.161,23.969 L65.032,34 L63.814,34 L61.273,26.349 C61.2216664,26.2043326 61.1750002,26.0363343 61.133,25.845 C61.1096665,25.9383338 61.0875001,26.0281662 61.0665,26.1145 C61.0454999,26.2008338 61.0233334,26.2789996 61,26.349 L58.445,34 L57.227,34 L54.098,23.969 Z M71.871,26.797 C72.2956688,26.797 72.6876649,26.868166 73.047,27.0105 C73.4063351,27.152834 73.7166654,27.3581653 73.978,27.6265 C74.2393346,27.8948347 74.4434993,28.2261647 74.5905,28.6205 C74.7375007,29.0148353 74.811,29.4639975 74.811,29.968 C74.811,30.164001 74.7900002,30.2946663 74.748,30.36 C74.7059998,30.4253337 74.6266672,30.458 74.51,30.458 L69.792,30.458 C69.8013334,30.9060022 69.8619994,31.295665 69.974,31.627 C70.0860006,31.958335 70.239999,32.2348322 70.436,32.4565 C70.632001,32.6781678 70.865332,32.8438328 71.136,32.9535 C71.406668,33.0631672 71.7099983,33.118 72.046,33.118 C72.3586682,33.118 72.6281655,33.0818337 72.8545,33.0095 C73.0808345,32.9371663 73.2756658,32.8590004 73.439,32.775 C73.6023341,32.6909996 73.7388328,32.6128337 73.8485,32.5405 C73.9581672,32.4681663 74.0526663,32.432 74.132,32.432 C74.2346672,32.432 74.3139997,32.4716663 74.37,32.551 L74.72,33.006 C74.5659992,33.1926676 74.3816677,33.3548326 74.167,33.4925 C73.9523323,33.6301674 73.7225012,33.7433329 73.4775,33.832 C73.2324988,33.9206671 72.9793346,33.9871664 72.718,34.0315 C72.4566654,34.0758336 72.1976679,34.098 71.941,34.098 C71.4509975,34.098 70.9995021,34.0151675 70.5865,33.8495 C70.1734979,33.6838325 69.8165015,33.4411683 69.5155,33.1215 C69.2144985,32.8018317 68.9800008,32.4063357 68.812,31.935 C68.6439992,31.4636643 68.56,30.9223364 68.56,30.311 C68.56,29.8163309 68.6358326,29.3543355 68.7875,28.925 C68.9391674,28.4956645 69.1573319,28.1235016 69.442,27.8085 C69.7266681,27.4934984 70.0743313,27.2461676 70.485,27.0665 C70.8956687,26.8868324 71.3576641,26.797 71.871,26.797 L71.871,26.797 Z M71.899,27.714 C71.296997,27.714 70.8233351,27.8878316 70.478,28.2355 C70.1326649,28.5831684 69.9180004,29.0649969 69.834,29.681 L73.691,29.681 C73.691,29.3916652 73.6513337,29.1268345 73.572,28.8865 C73.4926663,28.6461655 73.3760008,28.4385009 73.222,28.2635 C73.0679992,28.0884991 72.8801678,27.9531671 72.6585,27.8575 C72.4368322,27.7618329 72.1836681,27.714 71.899,27.714 L71.899,27.714 Z M76.442,34 L76.442,23.689 L77.695,23.689 L77.695,27.931 C77.9890015,27.5903316 78.3261648,27.3161677 78.7065,27.1085 C79.0868352,26.9008323 79.5219975,26.797 80.012,26.797 C80.4226687,26.797 80.793665,26.8739992 81.125,27.028 C81.456335,27.1820008 81.7386655,27.4118318 81.972,27.7175 C82.2053345,28.0231682 82.3849994,28.4011644 82.511,28.8515 C82.6370006,29.3018356 82.7,29.8209971 82.7,30.409 C82.7,30.9316693 82.6300007,31.4181644 82.49,31.8685 C82.3499993,32.3188356 82.148168,32.7084984 81.8845,33.0375 C81.620832,33.3665016 81.2988352,33.6254991 80.9185,33.8145 C80.5381648,34.0035009 80.1100024,34.098 79.634,34.098 C79.1766644,34.098 78.7881683,34.0093342 78.4685,33.832 C78.1488317,33.6546658 77.8700012,33.4073349 77.632,33.09 L77.569,33.734 C77.5316665,33.9113342 77.4243342,34 77.247,34 L76.442,34 Z M79.606,27.791 C79.199998,27.791 78.8441682,27.8843324 78.5385,28.071 C78.2328318,28.2576676 77.9516679,28.5213316 77.695,28.862 L77.695,32.292 C77.9190011,32.6000015 78.1674986,32.8169994 78.4405,32.943 C78.7135014,33.0690006 79.0179983,33.132 79.354,33.132 C80.01667,33.132 80.5253316,32.8963357 80.88,32.425 C81.2346684,31.9536643 81.412,31.281671 81.412,30.409 C81.412,29.9469977 81.3711671,29.550335 81.2895,29.219 C81.2078329,28.887665 81.0900008,28.6158344 80.936,28.4035 C80.7819992,28.1911656 80.5930011,28.0360005 80.369,27.938 C80.1449989,27.8399995 79.8906681,27.791 79.606,27.791 L79.606,27.791 Z M91.023,32.922 C91.4383354,32.922 91.8093317,32.8520007 92.136,32.712 C92.4626683,32.5719993 92.7391655,32.3760013 92.9655,32.124 C93.1918345,31.8719987 93.3644994,31.5710017 93.4835,31.221 C93.6025006,30.8709982 93.662,30.4860021 93.662,30.066 L93.662,23.969 L95.013,23.969 L95.013,30.066 C95.013,30.6446696 94.9208343,31.1813309 94.7365,31.676 C94.5521657,32.1706691 94.2885017,32.5988315 93.9455,32.9605 C93.6024983,33.3221685 93.1836691,33.6056656 92.689,33.811 C92.1943309,34.0163344 91.6390031,34.119 91.023,34.119 C90.4069969,34.119 89.8516691,34.0163344 89.357,33.811 C88.8623309,33.6056656 88.4423351,33.3221685 88.097,32.9605 C87.7516649,32.5988315 87.4868343,32.1706691 87.3025,31.676 C87.1181657,31.1813309 87.026,30.6446696 87.026,30.066 L87.026,23.969 L88.377,23.969 L88.377,30.059 C88.377,30.4790021 88.4364994,30.8639982 88.5555,31.214 C88.6745006,31.5640017 88.8471655,31.8649987 89.0735,32.117 C89.2998345,32.3690013 89.5774984,32.566166 89.9065,32.7085 C90.2355016,32.850834 90.6076646,32.922 91.023,32.922 L91.023,32.922 Z M97.148,36.401 L97.148,26.909 L97.89,26.909 C98.0673342,26.909 98.1793331,26.9953325 98.226,27.168 L98.331,28.008 C98.6343348,27.6393315 98.9808314,27.3430011 99.3705,27.119 C99.7601686,26.8949989 100.209331,26.783 100.718,26.783 C101.124002,26.783 101.492665,26.8611659 101.824,27.0175 C102.155335,27.1738341 102.437665,27.4048318 102.671,27.7105 C102.904334,28.0161682 103.083999,28.3953311 103.21,28.848 C103.336001,29.3006689 103.399,29.8209971 103.399,30.409 C103.399,30.9316693 103.329001,31.4181644 103.189,31.8685 C103.048999,32.3188356 102.848335,32.7084984 102.587,33.0375 C102.325665,33.3665016 102.004835,33.6254991 101.6245,33.8145 C101.244165,34.0035009 100.816002,34.098 100.34,34.098 C99.9013311,34.098 99.5268349,34.0256674 99.2165,33.881 C98.9061651,33.7363326 98.6320012,33.5310013 98.394,33.265 L98.394,36.401 L97.148,36.401 Z M100.305,27.791 C99.898998,27.791 99.5431682,27.8843324 99.2375,28.071 C98.9318318,28.2576676 98.6506679,28.5213316 98.394,28.862 L98.394,32.292 C98.6226678,32.6000015 98.8734986,32.8169994 99.1465,32.943 C99.4195014,33.0690006 99.7239983,33.132 100.06,33.132 C100.718003,33.132 101.224332,32.8963357 101.579,32.425 C101.933668,31.9536643 102.111,31.281671 102.111,30.409 C102.111,29.9469977 102.070167,29.550335 101.9885,29.219 C101.906833,28.887665 101.789001,28.6158344 101.635,28.4035 C101.480999,28.1911656 101.292001,28.0360005 101.068,27.938 C100.843999,27.8399995 100.589668,27.791 100.305,27.791 L100.305,27.791 Z M106.262,23.689 L106.262,34 L105.016,34 L105.016,23.689 L106.262,23.689 Z M111.33,26.797 C111.848003,26.797 112.315831,26.8833325 112.7335,27.056 C113.151169,27.2286675 113.505832,27.4736651 113.7975,27.791 C114.089168,28.1083349 114.313166,28.4921644 114.4695,28.9425 C114.625834,29.3928356 114.704,29.8956639 114.704,30.451 C114.704,31.0110028 114.625834,31.5149978 114.4695,31.963 C114.313166,32.4110022 114.089168,32.7936651 113.7975,33.111 C113.505832,33.4283349 113.151169,33.6721658 112.7335,33.8425 C112.315831,34.0128342 111.848003,34.098 111.33,34.098 C110.811997,34.098 110.344169,34.0128342 109.9265,33.8425 C109.508831,33.6721658 109.153001,33.4283349 108.859,33.111 C108.564999,32.7936651 108.338667,32.4110022 108.18,31.963 C108.021333,31.5149978 107.942,31.0110028 107.942,30.451 C107.942,29.8956639 108.021333,29.3928356 108.18,28.9425 C108.338667,28.4921644 108.564999,28.1083349 108.859,27.791 C109.153001,27.4736651 109.508831,27.2286675 109.9265,27.056 C110.344169,26.8833325 110.811997,26.797 111.33,26.797 L111.33,26.797 Z M111.33,33.125 C112.030003,33.125 112.552665,32.8905023 112.898,32.4215 C113.243335,31.9524977 113.416,31.2980042 113.416,30.458 C113.416,29.6133291 113.243335,28.9553357 112.898,28.484 C112.552665,28.0126643 112.030003,27.777 111.33,27.777 C110.975332,27.777 110.667335,27.8376661 110.406,27.959 C110.144665,28.0803339 109.926501,28.2553322 109.7515,28.484 C109.576499,28.7126678 109.445834,28.9938317 109.3595,29.3275 C109.273166,29.6611683 109.23,30.0379979 109.23,30.458 C109.23,30.8780021 109.273166,31.253665 109.3595,31.585 C109.445834,31.916335 109.576499,32.1951655 109.7515,32.4215 C109.926501,32.6478345 110.144665,32.8216661 110.406,32.943 C110.667335,33.0643339 110.975332,33.125 111.33,33.125 L111.33,33.125 Z M121.452,34 L120.899,34 C120.777666,34 120.679667,33.9813335 120.605,33.944 C120.530333,33.9066665 120.481333,33.8273339 120.458,33.706 L120.318,33.048 C120.131332,33.2160008 119.949334,33.3664993 119.772,33.4995 C119.594666,33.6325007 119.408001,33.7444995 119.212,33.8355 C119.015999,33.9265005 118.807168,33.9953331 118.5855,34.042 C118.363832,34.0886669 118.117668,34.112 117.847,34.112 C117.571665,34.112 117.313835,34.0735004 117.0735,33.9965 C116.833165,33.9194996 116.624334,33.8040008 116.447,33.65 C116.269666,33.4959992 116.128501,33.3011678 116.0235,33.0655 C115.918499,32.8298322 115.866,32.5510016 115.866,32.229 C115.866,31.9489986 115.942999,31.6795013 116.097,31.4205 C116.251001,31.1614987 116.499498,30.9316677 116.8425,30.731 C117.185502,30.5303323 117.634664,30.365834 118.19,30.2375 C118.745336,30.109166 119.424329,30.0356668 120.227,30.017 L120.227,29.464 C120.227,28.9133306 120.109168,28.4968347 119.8735,28.2145 C119.637832,27.9321653 119.289002,27.791 118.827,27.791 C118.523665,27.791 118.268168,27.8294996 118.0605,27.9065 C117.852832,27.9835004 117.673167,28.0698329 117.5215,28.1655 C117.369833,28.2611671 117.239167,28.3474996 117.1295,28.4245 C117.019833,28.5015004 116.911334,28.54 116.804,28.54 C116.72,28.54 116.6465,28.5178336 116.5835,28.4735 C116.5205,28.4291664 116.470334,28.3743337 116.433,28.309 L116.209,27.91 C116.601002,27.5319981 117.023331,27.2496676 117.476,27.063 C117.928669,26.8763324 118.430331,26.783 118.981,26.783 C119.377669,26.783 119.729998,26.8483327 120.038,26.979 C120.346002,27.1096673 120.604999,27.2916655 120.815,27.525 C121.025001,27.7583345 121.183666,28.040665 121.291,28.372 C121.398334,28.703335 121.452,29.0673313 121.452,29.464 L121.452,34 Z M118.218,33.237 C118.437334,33.237 118.637999,33.2148336 118.82,33.1705 C119.002001,33.1261664 119.173499,33.0631671 119.3345,32.9815 C119.495501,32.8998329 119.649499,32.8006672 119.7965,32.684 C119.943501,32.5673327 120.086999,32.4343341 120.227,32.285 L120.227,30.808 C119.652997,30.8266668 119.165335,30.8721663 118.764,30.9445 C118.362665,31.0168337 118.036001,31.1113327 117.784,31.228 C117.531999,31.3446672 117.348834,31.4823325 117.2345,31.641 C117.120166,31.7996675 117.063,31.976999 117.063,32.173 C117.063,32.3596676 117.093333,32.520666 117.154,32.656 C117.214667,32.791334 117.296333,32.9021662 117.399,32.9885 C117.501667,33.0748338 117.622999,33.1378331 117.763,33.1775 C117.903001,33.2171669 118.054666,33.237 118.218,33.237 L118.218,33.237 Z M128.333,34 C128.155666,34 128.043667,33.9136675 127.997,33.741 L127.885,32.88 C127.581665,33.2486685 127.235169,33.5438322 126.8455,33.7655 C126.455831,33.9871678 126.009003,34.098 125.505,34.098 C125.098998,34.098 124.730335,34.0198341 124.399,33.8635 C124.067665,33.7071659 123.785334,33.4773348 123.552,33.174 C123.318665,32.8706651 123.139001,32.4926689 123.013,32.04 C122.886999,31.5873311 122.824,31.0670029 122.824,30.479 C122.824,29.9563307 122.893999,29.4698356 123.034,29.0195 C123.174001,28.5691644 123.375832,28.178335 123.6395,27.847 C123.903168,27.515665 124.223998,27.2555009 124.602,27.0665 C124.980002,26.8774991 125.409331,26.783 125.89,26.783 C126.324002,26.783 126.694998,26.8564993 127.003,27.0035 C127.311002,27.1505007 127.586332,27.3569987 127.829,27.623 L127.829,23.689 L129.075,23.689 L129.075,34 L128.333,34 Z M125.918,33.09 C126.324002,33.09 126.679832,32.9966676 126.9855,32.81 C127.291168,32.6233324 127.572332,32.3596684 127.829,32.019 L127.829,28.589 C127.600332,28.2809985 127.349501,28.0651673 127.0765,27.9415 C126.803499,27.8178327 126.501335,27.756 126.17,27.756 C125.50733,27.756 124.998668,27.9916643 124.644,28.463 C124.289332,28.9343357 124.112,29.606329 124.112,30.479 C124.112,30.9410023 124.151666,31.3364984 124.231,31.6655 C124.310334,31.9945016 124.426999,32.2651656 124.581,32.4775 C124.735001,32.6898344 124.923999,32.8449995 125.148,32.943 C125.372001,33.0410005 125.628665,33.09 125.918,33.09 L125.918,33.09 Z" id="NAM-" sketch:type="MSShapeGroup"></path>
            </g>
        </g>
    </g>
</svg>